<svg width="74" height="53" viewBox="0 0 74 53" fill="none" xmlns="http://www.w3.org/2000/svg">
<path d="M19.7679 50.4749V41.0395C19.7679 34.5679 25.0598 29.3215 31.5876 29.3215H42.4073C48.935 29.3215 54.227 34.5679 54.227 41.0395V50.4749" stroke="#999999" stroke-width="4" stroke-miterlimit="10" stroke-linecap="round"/>
<path d="M37.0026 26.0882C41.1883 26.0882 44.5815 22.7242 44.5815 18.5745C44.5815 14.4247 41.1883 11.0607 37.0026 11.0607C32.8168 11.0607 29.4236 14.4247 29.4236 18.5745C29.4236 22.7242 32.8168 26.0882 37.0026 26.0882Z" stroke="#999999" stroke-width="4" stroke-miterlimit="10" stroke-linecap="round"/>
<path d="M45.3045 21.3095C46.4173 20.9689 47.5967 20.7808 48.8222 20.7808H59.642C66.1697 20.7808 71.4616 26.0272 71.4616 32.4988V41.9342" stroke="#999999" stroke-width="4" stroke-miterlimit="10" stroke-linecap="round"/>
<path d="M54.2321 17.5526C58.4178 17.5526 61.8111 14.1886 61.8111 10.0389C61.8111 5.88914 58.4178 2.52512 54.2321 2.52512C50.0464 2.52512 46.6532 5.88914 46.6532 10.0389C46.6532 14.1886 50.0464 17.5526 54.2321 17.5526Z" stroke="#999999" stroke-width="4" stroke-miterlimit="10" stroke-linecap="round"/>
<path d="M2.53835 41.9393V32.5039C2.53835 26.0323 7.83028 20.7859 14.358 20.7859H25.1778C26.6751 20.7859 28.1058 21.0604 29.4236 21.5637" stroke="#999999" stroke-width="4" stroke-miterlimit="10" stroke-linecap="round"/>
<path d="M19.773 17.5526C23.9588 17.5526 27.352 14.1886 27.352 10.0389C27.352 5.88914 23.9588 2.52512 19.773 2.52512C15.5873 2.52512 12.1941 5.88914 12.1941 10.0389C12.1941 14.1886 15.5873 17.5526 19.773 17.5526Z" stroke="#999999" stroke-width="4" stroke-miterlimit="10" stroke-linecap="round"/>
</svg>
